<?xml version="1.0" encoding="UTF-8"?>
<svg width="20px" height="16px" viewBox="0 0 20 16" version="1.1" xmlns="http://www.w3.org/2000/svg" xmlns:xlink="http://www.w3.org/1999/xlink">
    <!-- Generator: Sketch 55.2 (78181) - https://sketchapp.com -->
    <title>icon/file/list/bullet/24</title>
    <desc>Created with Sketch.</desc>
    <defs>
        <path d="M5.25,9 C4.00735931,9 3,7.99264069 3,6.75 C3,5.50735931 4.00735931,4.5 5.25,4.5 C6.49264069,4.5 7.5,5.50735931 7.5,6.75 C7.5,7.99264069 6.49264069,9 5.25,9 Z M5.25,19.5 C4.00735931,19.5 3,18.4926407 3,17.25 C3,16.0073593 4.00735931,15 5.25,15 C6.49264069,15 7.5,16.0073593 7.5,17.25 C7.5,18.4926407 6.49264069,19.5 5.25,19.5 Z M12,16.5 L22.5,16.5 L22.5,18 L12,18 L12,16.5 Z M12,6 L22.5,6 L22.5,7.5 L12,7.5 L12,6 Z" id="path-1"></path>
    </defs>
    <g id="Page-1" stroke="none" stroke-width="1" fill="none" fill-rule="evenodd">
        <g id="icon/file/list/bullet/24" transform="translate(-3.000000, -4.000000)">
            <mask id="mask-2" fill="white">
                <use xlink:href="#path-1"></use>
            </mask>
            <use id="icon-color" fill="#ffffff" fill-rule="evenodd" xlink:href="#path-1"></use>
        </g>
    </g>
</svg>