<svg xmlns="http://www.w3.org/2000/svg" fill="#fff" class="MuiSvgIcon-root" focusable="false" viewBox="0 0 32 32" aria-hidden="true" role="presentation" data-mui-test="groupIcon" style="font-size: 3em;"><path d="M31 30h-2v-3a3 3 0 0 0-3-3h-4a3 3 0 0 0-3 3v3h-2v-3a5 5 0 0 1 5-5h4a5 5 0 0 1 5 5zm-7-18a3 3 0 1 1-3 3 3 3 0 0 1 3-3m0-2a5 5 0 1 0 5 5 5 5 0 0 0-5-5zm-9 12h-2v-3a3 3 0 0 0-3-3H6a3 3 0 0 0-3 3v3H1v-3a5 5 0 0 1 5-5h4a5 5 0 0 1 5 5zM8 4a3 3 0 1 1-3 3 3 3 0 0 1 3-3m0-2a5 5 0 1 0 5 5 5 5 0 0 0-5-5z"/></svg>