<?xml version="1.0" encoding="UTF-8"?>
<svg width="16px" height="22px" viewBox="0 0 16 22" version="1.1" xmlns="http://www.w3.org/2000/svg" xmlns:xlink="http://www.w3.org/1999/xlink">
    <!-- Generator: Sketch 55.2 (78181) - https://sketchapp.com -->
    <title>icon/toggle/locked/24</title>
    <desc>Created with Sketch.</desc>
    <defs>
        <path d="M18,10.5 L16.5,10.5 L16.5,6 C16.5,3.51471863 14.4852814,1.5 12,1.5 C9.51471863,1.5 7.5,3.51471863 7.5,6 L7.5,10.5 L6,10.5 C5.17157288,10.5 4.5,11.1715729 4.5,12 L4.5,21 C4.5,21.8284271 5.17157288,22.5 6,22.5 L18,22.5 C18.8284271,22.5 19.5,21.8284271 19.5,21 L19.5,12 C19.5,11.1715729 18.8284271,10.5 18,10.5 Z M9,6 C9,4.34314575 10.3431458,3 12,3 C13.6568542,3 15,4.34314575 15,6 L15,10.5 L9,10.5 L9,6 Z M18,21 L6,21 L6,12 L18,12 L18,21 Z" id="path-1"></path>
    </defs>
    <g id="Page-1" stroke="none" stroke-width="1" fill="none" fill-rule="evenodd">
        <g id="icon/toggle/locked/24" transform="translate(-4.000000, -1.000000)">
            <mask id="mask-2" fill="white">
                <use xlink:href="#path-1"></use>
            </mask>
            <use id="icon-color" fill="#ffffff" fill-rule="evenodd" xlink:href="#path-1"></use>
        </g>
    </g>
</svg>