<?xml version="1.0" encoding="UTF-8"?>
<svg width="22px" height="22px" viewBox="0 0 22 22" version="1.1" xmlns="http://www.w3.org/2000/svg" xmlns:xlink="http://www.w3.org/1999/xlink">
    <!-- Generator: Sketch 55.2 (78181) - https://sketchapp.com -->
    <title>icon/data/parent child/24</title>
    <desc>Created with Sketch.</desc>
    <defs>
        <path d="M21,9 C21.8284271,9 22.5,8.32842712 22.5,7.5 L22.5,3 C22.5,2.17157288 21.8284271,1.5 21,1.5 L3,1.5 C2.17157288,1.5 1.5,2.17157288 1.5,3 L1.5,7.5 C1.5,8.32842712 2.17157288,9 3,9 L11.25,9 L11.25,12 L6.75,12 C5.92157288,12 5.25,12.6715729 5.25,13.5 L5.25,16.5 L3,16.5 C2.17157288,16.5 1.5,17.1715729 1.5,18 L1.5,21 C1.5,21.8284271 2.17157288,22.5 3,22.5 L9,22.5 C9.82842712,22.5 10.5,21.8284271 10.5,21 L10.5,18 C10.5,17.1715729 9.82842712,16.5 9,16.5 L6.75,16.5 L6.75,13.5 L17.25,13.5 L17.25,16.5 L15,16.5 C14.1715729,16.5 13.5,17.1715729 13.5,18 L13.5,21 C13.5,21.8284271 14.1715729,22.5 15,22.5 L21,22.5 C21.8284271,22.5 22.5,21.8284271 22.5,21 L22.5,18 C22.5,17.1715729 21.8284271,16.5 21,16.5 L18.75,16.5 L18.75,13.5 C18.75,12.6715729 18.0784271,12 17.25,12 L12.75,12 L12.75,9 L21,9 Z M9,21 L3,21 L3,18 L9,18 L9,21 Z M21,21 L15,21 L15,18 L21,18 L21,21 Z M3,3 L21,3 L21,7.5 L3,7.5 L3,3 Z" id="path-1"></path>
    </defs>
    <g id="Page-1" stroke="none" stroke-width="1" fill="none" fill-rule="evenodd">
        <g id="icon/data/parent-child/24" transform="translate(-1.000000, -1.000000)">
            <mask id="mask-2" fill="white">
                <use xlink:href="#path-1"></use>
            </mask>
            <use id="icon-color" fill="#ffffff" fill-rule="evenodd" xlink:href="#path-1"></use>
        </g>
    </g>
</svg>