<?xml version="1.0" encoding="UTF-8"?>
<svg width="22px" height="20px" viewBox="0 0 22 20" version="1.1" xmlns="http://www.w3.org/2000/svg" xmlns:xlink="http://www.w3.org/1999/xlink">
    <title>icon/data/1/24</title>
    <defs>
        <path d="M20.8875,21.75 L22.5,21.75 L18,10.5 L16.2375,10.5 L11.7375,21.75 L13.35,21.75 L14.55,18.75 L19.6875,18.75 L20.8875,21.75 Z M15.15,17.25 L17.115,12.33 L19.0875,17.25 L15.15,17.25 Z M13.5,5.25 L13.5,3.75 L8.25,3.75 L8.25,2.25 L6.75,2.25 L6.75,3.75 L1.5,3.75 L1.5,5.25 L9.525,5.25 C9.12607773,6.96410917 8.31514988,8.55507238 7.1625,9.885 C6.40873498,8.95004173 5.82718698,7.88852615 5.445,6.75 L3.87,6.75 C4.34015219,8.27827856 5.10448069,9.69992957 6.12,10.935 C4.95321582,11.9979697 3.60406841,12.8415045 2.1375,13.425 L2.7,14.82 C4.34482501,14.1644764 5.85307502,13.2081492 7.1475,12 C8.44022158,13.2415779 9.9709852,14.2085103 11.6475,14.8425 L12.18,13.44 C10.6843687,12.8914488 9.31460767,12.0471455 8.1525,10.9575 C9.57108666,9.31814562 10.5720529,7.35995724 11.07,5.25 L13.5,5.25 Z" id="path-1"></path>
    </defs>
    <g id="Page-1" stroke="none" stroke-width="1" fill="none" fill-rule="evenodd">
        <g id="Artboard" transform="translate(-577.000000, -355.000000)">
            <g id="icon/data/1/24" transform="translate(576.000000, 353.000000)">
                <mask id="mask-2" fill="white">
                    <use xlink:href="#path-1"></use>
                </mask>
                <use id="icon-color" fill="#FFFFFF" xlink:href="#path-1"></use>
            </g>
        </g>
    </g>
</svg>